<svg xmlns:ns0="http://www.w3.org/2000/svg" viewBox="0 0 24 24" aria-hidden="true" xmlns="http://www.w3.org/2000/svg" xmlns:xlink="http://www.w3.org/1999/xlink"><ns0:path fill="#000000" opacity="1.000000" stroke="none" d=" M335.000000,733.000000   C247.645767,733.000000 160.291550,733.000000 72.176270,732.674438   C72.794769,731.597290 74.091721,730.541870 75.566597,730.140991   C90.858932,725.984497 104.402748,707.763367 104.289200,691.029785   C104.650307,690.642883 104.754402,690.335815 104.940491,689.564575   C105.031303,654.786072 105.040138,620.471558 105.302597,586.058960   C105.659508,585.649658 105.762794,585.338623 105.943863,584.614136   C106.030754,582.519470 106.039864,580.838318 106.302597,579.058960   C106.659500,578.649658 106.762794,578.338623 106.943893,577.627808   C107.030792,575.871094 107.039886,574.514099 107.302597,573.058960   C107.659485,572.649658 107.762749,572.338623 107.943764,571.674927   C108.030586,570.600403 108.039658,569.878357 108.302460,569.058533   C108.659523,568.649658 108.762848,568.338562 108.943962,567.674927   C109.030701,566.600281 109.039642,565.878174 109.302353,565.058350   C109.659622,564.649475 109.763123,564.338440 109.944618,563.674927   C110.031319,562.600525 110.040024,561.878540 110.302353,561.058533   C110.659439,560.649475 110.762909,560.338440 110.944412,559.722046   C111.031189,558.996582 111.039932,558.576538 111.302322,558.058472   C111.659424,557.649475 111.762901,557.338440 111.944405,556.722046   C112.031181,555.996582 112.039932,555.576538 112.302330,555.058472   C112.659454,554.649475 112.762932,554.338440 112.944427,553.722107   C113.031189,552.996643 113.039940,552.576599 113.302315,552.058472   C113.659119,551.649536 113.762299,551.338562 113.944351,550.816467   C114.023216,550.605347 114.048302,550.155334 114.302109,550.057861   C114.659302,549.649414 114.762680,549.338501 114.944000,548.722107   C115.030846,547.996582 115.039749,547.576416 115.302368,547.058411   C115.659248,546.649536 115.762413,546.338562 115.944374,545.816406   C116.023170,545.605286 116.048286,545.155273 116.302101,545.057861   C116.659302,544.649414 116.762680,544.338501 116.944000,543.722107   C117.030846,542.996582 117.039749,542.576416 117.302353,542.058411   C117.659225,541.649536 117.762390,541.338562 117.944366,540.816406   C118.023178,540.605286 118.048294,540.155334 118.302094,540.057861   C118.659096,539.649475 118.762291,539.338501 118.944351,538.816467   C119.023224,538.605347 119.048332,538.155334 119.302132,538.057861   C119.659119,537.649475 119.762299,537.338501 119.944351,536.816467   C120.023224,536.605347 120.048332,536.155334 120.302124,536.057861   C120.659096,535.649475 120.762283,535.338501 120.944351,534.816467   C121.023224,534.605347 121.048332,534.155334 121.302124,534.057861   C121.659111,533.649475 121.762291,533.338501 121.944351,532.816528   C122.023224,532.605408 122.048317,532.155396 122.302109,532.057861   C122.659119,531.649475 122.762337,531.338501 122.964081,530.760498   C123.392456,530.051147 123.722313,529.608887 124.304443,529.064209   C124.660332,528.650391 124.763931,528.338806 124.946312,527.816528   C125.025093,527.605835 125.048660,527.156494 125.302139,527.058350   C125.659241,526.649231 125.762856,526.338379 125.945679,525.816772   C126.024895,525.606079 126.048653,525.156494 126.302139,525.058350   C126.659256,524.649231 126.762871,524.338379 126.965286,523.760620   C127.393425,523.051331 127.722786,522.608887 128.304413,522.064209   C128.660294,521.650391 128.763885,521.338806 128.965897,520.760376   C129.393570,520.051086 129.722839,519.608765 130.304413,519.064209   C130.660294,518.650391 130.763885,518.338806 130.965912,517.760376   C131.393585,517.051147 131.722855,516.608765 132.304413,516.064209   C132.660294,515.650391 132.763885,515.338806 132.965912,514.760376   C133.393616,514.051147 133.722885,513.608887 134.304428,513.064270   C134.659973,512.650513 134.763245,512.338989 134.964783,511.760437   C135.392746,511.051178 135.722473,510.608948 136.304489,510.064362   C136.660034,509.650513 136.763306,509.338989 136.986298,508.730652   C138.088074,507.344849 139.070145,506.255859 140.304565,505.064514   C140.660202,504.650604 140.763474,504.339050 140.986389,503.730591   C142.088120,502.344788 143.070175,501.255829 144.304581,500.064514   C144.660202,499.650604 144.763474,499.339050 144.997742,498.715881   C147.103165,496.324951 149.077606,494.245636 151.304321,492.064087   C151.659973,491.650360 151.763351,491.338928 152.000336,490.712585   C156.763428,485.885345 161.392883,481.372955 166.293854,476.896851   C166.767014,476.638367 166.968674,476.343597 167.456161,475.955200   C168.522125,474.968201 169.302261,474.074890 170.382324,473.051544   C171.796280,471.902679 172.910278,470.883850 174.296051,469.898529   C174.771179,469.637878 174.974518,469.343750 175.477249,468.943970   C176.859177,467.847321 177.941711,466.856262 179.296066,465.898621   C179.771271,465.637909 179.974655,465.343811 180.477371,464.944061   C181.859177,463.847656 182.941635,462.856903 184.296082,461.899414   C184.771713,461.638458 184.975372,461.344269 185.468826,460.953064   C186.510498,460.192780 187.262390,459.529541 188.287384,458.902679   C188.769775,458.645142 188.979050,458.351196 189.478760,457.961639   C190.522018,457.203094 191.274811,456.540161 192.300537,455.903748   C192.781326,455.637299 192.989197,455.344360 193.466858,454.973389   C194.166992,454.555847 194.597351,454.216339 195.300568,453.903503   C195.781265,453.637238 195.989075,453.344299 196.466751,452.973358   C197.166992,452.555817 197.597382,452.216217 198.300629,451.903442   C198.781204,451.637238 198.988922,451.344269 199.485580,450.956360   C200.522446,450.200623 201.270386,449.539795 202.337860,448.937744   C203.088501,448.957001 203.519608,448.917511 204.304932,448.951019   C207.275085,450.699829 209.963776,452.273315 212.492706,454.071472   C219.018723,458.711700 225.474152,463.451202 232.094727,468.441528   C234.130905,470.499420 236.030106,472.266846 237.977905,474.308167   C238.340103,474.747711 238.653732,474.913361 238.978058,475.044861   C238.988770,475.010712 238.919693,475.029480 238.972046,475.304535   C239.339722,475.746460 239.655060,475.913361 239.979553,476.045776   C239.988678,476.011292 239.919708,476.029510 239.972046,476.304565   C240.339706,476.746490 240.655045,476.913361 240.979523,477.045776   C240.988647,477.011292 240.919708,477.029510 240.972076,477.304504   C241.339752,477.746429 241.655075,477.913330 241.979553,478.045746   C241.988708,478.011292 241.919769,478.029602 241.972137,478.304596   C242.339767,478.746460 242.655045,478.913330 242.979523,479.045715   C242.988708,479.011230 242.919769,479.029572 242.972168,479.304565   C243.339813,479.746429 243.655090,479.913300 243.979523,480.045715   C243.988708,480.011261 243.919800,480.029572 243.972198,480.304535   C244.339828,480.746399 244.655090,480.913269 244.979584,481.045654   C244.988800,481.011200 244.919876,481.029694 244.972260,481.304626   C245.339828,481.746368 245.654999,481.913239 245.979492,482.045624   C245.988800,482.011169 245.919876,482.029724 245.972229,482.304626   C246.339783,482.746399 246.654953,482.913239 246.979462,483.045654   C246.988785,483.011200 246.919876,483.029755 246.972198,483.304688   C247.339691,483.746429 247.654877,483.913269 247.979431,484.045654   C247.988785,484.011169 247.919876,484.029816 247.972137,484.304749   C248.339584,484.746521 248.654785,484.913330 248.979401,485.045654   C248.988800,485.011200 248.919861,485.029877 248.972076,485.304840   C249.339493,485.746582 249.654724,485.913361 249.979370,486.045685   C249.988785,486.011230 249.919830,486.029938 249.971985,486.304932   C250.339386,486.746674 250.654633,486.913422 250.979309,487.045685   C250.988724,487.011230 250.919739,487.029816 250.971878,487.304871   C251.339355,487.746704 251.654678,487.913483 251.979370,488.045776   C251.988708,488.011292 251.919724,488.029846 251.971832,488.304932   C252.339294,488.746765 252.654648,488.913513 252.979340,489.045776   C252.988693,489.011292 252.919708,489.029846 252.971802,489.304932   C253.339279,489.746765 253.654633,489.913483 253.979340,490.045776   C253.988663,490.011292 253.919708,490.029877 253.971817,490.304962   C254.339294,490.746796 254.654648,490.913513 254.979355,491.045776   C254.988693,491.011292 254.919708,491.029846 254.971817,491.304932   C255.339294,491.746796 255.654678,491.913513 255.979355,492.045776   C255.988663,492.011292 255.919647,492.029724 255.971771,492.304871   C256.339325,492.746796 256.654755,492.913574 256.979431,493.045837   C256.988708,493.011383 256.919800,493.030121 256.972839,493.306519   C257.343781,493.748657 257.661682,493.914398 257.984619,494.043335   C257.989655,494.006531 257.915619,494.000336 257.944214,494.329041   C258.299194,495.128662 258.625549,495.599548 258.971375,496.038452   C258.990906,496.006470 258.919861,496.030365 258.971924,496.305298   C259.339142,496.746857 259.654327,496.913483 259.979126,497.045685   C259.988739,497.011261 259.919861,497.030365 259.971924,497.305298   C260.339142,497.746857 260.654327,497.913483 260.979126,498.045685   C260.988770,498.011261 260.919861,498.030334 260.971893,498.305298   C261.339142,498.746857 261.654327,498.913483 261.979126,499.045685   C261.988739,499.011261 261.919830,499.030334 261.971863,499.305298   C262.339081,499.746887 262.654327,499.913513 262.979156,500.045715   C262.988770,500.011292 262.919952,500.030579 262.972900,500.306915   C263.343781,500.748901 263.661682,500.914520 263.984650,501.043335   C263.989716,501.006500 263.915619,501.000153 263.944122,501.328888   C264.298798,502.128448 264.624969,502.599274 264.971130,503.038208   C264.991119,503.006348 264.919922,503.030609 264.971741,503.305603   C265.338806,503.747070 265.654053,503.913574 265.979034,504.045624   C265.988800,504.011200 265.919952,504.030701 265.972229,504.306335   C266.341003,504.747742 266.657471,504.913513 266.980499,505.043945   C266.987061,505.008606 266.915192,505.005585 266.943848,505.333923   C267.299255,506.131836 267.625977,506.601440 267.971741,507.038879   C267.990784,507.006714 267.919891,507.030457 267.971741,507.305511   C268.338837,507.747070 268.654114,507.913574 268.979126,508.045624   C268.988800,508.011169 268.919922,508.030548 268.972229,508.306213   C269.341034,508.747681 269.657562,508.913513 269.980591,509.043915   C269.987122,509.008514 269.915222,509.005402 269.943909,509.333679   C270.299225,510.131653 270.625885,510.601318 270.971680,511.038818   C270.990814,511.006683 270.919891,511.030548 270.971802,511.305542   C271.338928,511.747040 271.654144,511.913574 271.979126,512.045532   C271.988922,512.011047 271.919922,512.030640 271.972290,512.306213   C272.341034,512.747620 272.657471,512.913513 272.980469,513.043945   C272.987091,513.008545 272.915131,513.005188 272.943573,513.333557   C273.298828,514.131592 273.625641,514.601257 273.971619,515.038818   C273.990753,515.006714 273.919922,515.030579 273.972198,515.306213   C274.340973,515.747681 274.657440,515.913513 274.980499,516.043945   C274.987061,516.008545 274.915131,516.005127 274.943481,516.333496   C275.298492,517.131470 275.625122,517.601013 275.975220,518.035767   C275.998657,518.000977 275.937561,518.058655 276.019592,518.375000   C276.719360,519.484314 277.337128,520.277344 277.970123,521.038330   C277.985352,521.006409 277.914612,521.006165 277.943451,521.334290   C278.298553,522.131897 278.624817,522.601379 278.970947,523.038696   C278.990814,523.006531 278.919586,523.031555 278.971832,523.307068   C279.340424,523.748291 279.656769,523.914001 279.979858,524.044312   C279.986572,524.008911 279.914581,524.005859 279.943451,524.334595   C280.300110,525.132507 280.627899,525.601624 280.970520,526.038696   C280.985382,526.006531 280.914612,526.006104 280.943542,526.334229   C281.298737,527.131836 281.625031,527.601318 281.971069,528.038696   C281.990784,528.006592 281.919586,528.031250 281.972076,528.306702   C282.340851,528.747986 282.657104,528.913879 282.980042,529.044312   C282.986694,529.008850 282.914551,529.005127 282.943573,529.333801   C283.300323,530.131958 283.628082,530.601379 283.970581,531.038696   C283.985321,531.006592 283.914612,531.005798 283.943604,531.334351   C284.300354,532.132202 284.628113,532.601562 284.970581,533.038696   C284.985321,533.006592 284.914612,533.005737 284.943542,533.334412   C285.300262,534.132324 285.628052,534.601624 285.970581,535.038696   C285.985352,535.006531 285.914612,535.005615 285.943756,535.334229   C286.300507,536.132202 286.628143,536.601501 286.970551,537.038696   C286.985321,537.006592 286.914581,537.005493 286.943756,537.334106   C287.300476,538.132019 287.628052,538.601379 287.970459,539.038574   C287.985291,539.006470 287.914581,539.005249 287.943756,539.333801   C288.300293,540.131714 288.627625,540.601074 288.969788,541.038208   C288.984589,541.005981 288.914093,540.997620 288.946594,541.358887   C289.304688,542.503723 289.630280,543.287415 289.970612,544.038879   C289.985352,544.006714 289.914581,544.006348 289.943756,544.334778   C290.300293,545.132263 290.627625,545.601379 290.969971,546.038330   C290.984955,546.006287 290.914246,546.002686 290.946899,546.397156   C291.440063,547.522644 291.900604,548.253662 292.611633,549.199463   C296.535522,556.726257 301.484833,563.011108 307.934937,568.090393   C307.959137,568.073547 307.912872,568.039429 308.008179,568.272217   C308.393646,568.637329 308.683807,568.769653 309.292236,569.059753   C321.046082,576.552063 333.228424,578.240356 346.397797,574.033569   C346.607941,574.011536 347.022308,573.922729 347.334717,573.954285   C348.135315,573.668030 348.623535,573.350159 349.399170,573.004883   C350.140442,572.679016 350.594299,572.380554 351.400879,572.028870   C355.884399,568.994690 360.015106,566.013672 364.432983,562.870117   C367.125366,559.595886 370.030731,556.749817 371.848938,553.326416   C379.562653,538.802917 377.642487,524.077942 371.842072,509.517700   C369.862488,504.548401 367.260956,499.826904 364.866943,494.650848   C360.630157,487.497833 356.470062,480.686188 352.206451,473.533569   C348.801422,468.441620 345.499939,463.690613 342.048035,458.626160   C337.548157,452.872833 333.198700,447.432922 328.779846,441.668945   C322.558502,434.862823 316.406555,428.380707 310.078674,421.607849   C300.663666,413.189331 291.424591,405.061523 282.057922,396.667542   C281.279816,395.803253 280.629303,395.205078 280.208252,394.347595   C281.299194,393.345947 282.160675,392.603638 283.293793,391.897552   C283.767395,391.638947 283.969330,391.344116 284.461975,390.950928   C285.509216,390.188843 286.265717,389.525116 287.293823,388.897583   C287.767395,388.638947 287.969330,388.344086 288.479309,387.934723   C290.865662,385.833893 292.943939,383.847595 295.293854,381.897552   C295.767426,381.638916 295.969330,381.344086 296.480835,380.933258   C299.867706,377.831940 302.944946,374.846619 306.293823,371.897522   C306.767426,371.638947 306.969330,371.344086 307.479889,370.934113   C310.209717,368.268066 312.630859,365.717163 315.304382,363.063843   C315.662048,362.649689 315.767365,362.337952 316.006805,361.712036   C319.444641,357.987305 322.748322,354.576782 326.304382,351.063843   C326.662048,350.649719 326.767365,350.337952 327.002014,349.718353   C328.771545,347.662415 330.411774,345.914337 332.304382,344.063843   C332.662018,343.649689 332.767365,343.337952 332.985535,342.740540   C333.749542,341.691864 334.400696,340.928772 335.304199,340.063477   C335.661865,339.649597 335.767212,339.337891 335.985443,338.740601   C336.749512,337.691864 337.400665,336.928772 338.304199,336.063477   C338.661896,335.649567 338.767273,335.337891 338.993164,334.730133   C340.093079,333.344757 341.072510,332.255432 342.304321,331.063904   C342.661713,330.649933 342.766693,330.338196 342.970703,329.760223   C343.397003,329.050995 343.724304,328.607971 344.303955,328.063049   C344.661285,327.649567 344.766235,327.338013 344.970428,326.760315   C345.397003,326.051208 345.724365,325.608246 346.304108,325.063324   C346.660767,324.649872 346.765045,324.338348 346.968201,323.760315   C347.395294,323.051056 347.723541,322.608337 348.304199,322.063599   C348.660889,321.649994 348.765167,321.338409 348.968262,320.760254   C349.395294,320.050995 349.723511,319.608276 350.304138,319.063599   C350.660889,318.649994 350.765198,318.338409 350.968323,317.760254   C351.395325,317.050873 351.723480,316.608063 352.304077,316.063354   C352.661316,315.649811 352.766113,315.338196 352.950378,314.816895   C353.029846,314.607178 353.049377,314.159058 353.301605,314.058807   C353.659149,313.647949 353.764496,313.337341 353.970032,312.760864   C354.397278,312.051514 354.724335,311.608032 355.303833,311.062836   C355.661041,310.649597 355.765839,310.338104 355.950195,309.816895   C356.029755,309.607208 356.049347,309.159088 356.301453,309.058777   C356.658447,308.648041 356.763306,308.337585 356.968201,307.760986   C357.396027,307.051636 357.723846,306.608429 358.304077,306.063293   C358.661255,305.649780 358.766022,305.338165 358.950317,304.816895   C359.029785,304.607178 359.049377,304.159058 359.301514,304.058777   C359.658600,303.647980 359.763519,303.337494 359.949036,302.817383   C360.029602,302.607758 360.049408,302.159058 360.301575,302.058777   C360.658661,301.648010 360.763611,301.337524 360.949127,300.817413   C361.029694,300.607819 361.049438,300.159149 361.301575,300.058838   C361.658661,299.648010 361.763611,299.337494 361.949097,298.817383   C362.029663,298.607758 362.049377,298.159027 362.301514,298.058716   C362.658813,297.647888 362.763977,297.337372 362.949829,296.817505   C363.030518,296.608154 363.049683,296.159882 363.301666,296.059143   C363.658783,295.647888 363.763916,295.337372 363.949768,294.817474   C364.030457,294.608124 364.049622,294.159851 364.301575,294.059174   C364.658752,293.647949 364.763947,293.337402 364.969360,292.760864   C365.396820,292.051422 365.724091,291.607910 366.303772,291.062775   C366.660645,290.649689 366.765076,290.338257 366.948334,289.721863   C367.034332,288.996948 367.041534,288.576996 367.301086,288.057617   C367.658600,287.647705 367.763763,287.337311 367.949677,286.817566   C368.030426,286.608215 368.049652,286.159851 368.301636,286.059143   C368.658783,285.647919 368.763916,285.337372 368.949768,284.817474   C369.030457,284.608124 369.049652,284.159821 369.301666,284.059143   C369.658813,283.647949 369.763947,283.337402 369.949768,282.817444   C370.030457,282.608063 370.049622,282.159729 370.301514,282.059082   C370.657898,281.648041 370.762421,281.337677 370.947021,280.722473   C371.034302,279.997437 371.041504,279.577301 371.301056,279.057617   C371.658569,278.647675 371.763733,278.337280 371.949646,277.817566   C372.030426,277.608215 372.049652,277.159851 372.301636,277.059143   C372.658783,276.647919 372.763916,276.337372 372.949768,275.817444   C373.030457,275.608063 373.049622,275.159698 373.301483,275.059021   C373.657928,274.648010 373.762482,274.337646 373.947174,273.722351   C374.034332,272.997040 374.041351,272.576721 374.300476,272.057007   C374.656799,271.647675 374.760986,271.337677 374.945251,270.722595   C375.033020,269.997040 375.040710,269.576569 375.301575,269.057739   C375.658875,268.648682 375.763000,268.337982 375.946228,267.722046   C376.032959,266.996460 376.040619,266.576141 376.301453,266.057465   C376.659271,265.648407 376.763916,265.337677 376.948608,264.816956   C377.028656,264.606964 377.049011,264.157990 377.301758,264.058685   C377.658661,263.648682 377.762756,263.337982 377.946045,262.722107   C378.032928,261.996613 378.040619,261.576294 378.301514,261.057678   C378.658875,260.648682 378.763031,260.337952 378.946289,259.721863   C379.032928,258.995972 379.040405,258.575470 379.300720,258.056580   C379.657715,257.647980 379.761932,257.337738 379.945801,256.675110   C380.033051,255.600433 380.040619,254.878067 380.301147,254.057236   C380.658417,253.648270 380.762756,253.337769 380.946655,252.722214   C381.033600,251.996841 381.041016,251.576538 381.301208,251.057510   C381.658295,250.648315 381.762512,250.337830 381.946228,249.674988   C382.033173,248.600250 382.040619,247.877884 382.300842,247.056885   C382.658112,246.647888 382.762665,246.337524 382.947266,245.722244   C383.034302,244.997040 383.041351,244.576767 383.300751,244.057220   C383.657501,243.647720 383.761902,243.337494 383.946350,242.643372   C384.058258,241.215042 384.090149,240.170593 384.100800,239.098938   C384.079559,239.071716 384.066925,239.139572 384.316864,239.044434   C384.668213,238.642365 384.769653,238.335434 384.952057,237.648743   C385.038391,236.233597 385.043701,235.198212 385.300354,234.061127   C385.658142,233.649307 385.764618,233.339172 385.952087,232.649231   C386.038361,231.233810 386.043640,230.198227 386.299469,229.060364   C386.656586,228.648529 386.763153,228.338943 386.951416,227.630463   C387.038177,225.874741 387.043274,224.517944 387.299194,223.059616   C387.656128,222.648605 387.762238,222.339127 387.949646,221.579453   C388.036621,217.806183 388.042297,214.483078 388.299072,211.059021   C388.656250,210.648590 388.762360,210.339096 388.949646,209.577637   C389.331757,205.463089 389.632721,201.800476 389.964539,198.595947   C389.996887,377.036011 389.998444,555.018005 390.000000,733.000000   C379.312439,733.000000 368.624878,733.000000 357.463867,732.629517   C358.238068,731.558289 359.408905,730.611694 360.745056,730.194519   C376.429718,725.297119 389.601990,707.442993 389.108917,690.379211   C388.613556,673.237366 388.802307,656.066711 389.082703,638.915100   C389.224731,630.226868 386.588806,622.575562 381.971039,615.536926   C371.482239,599.549438 353.294128,593.268311 335.608093,597.346252   C318.006256,601.404846 302.188080,618.771667 302.870758,638.959595   C303.484009,657.094482 302.987762,675.266418 303.018982,693.421997   C303.022125,695.234558 303.053253,697.103210 303.471375,698.850159   C307.373535,715.154602 317.404053,725.817871 333.290192,731.086670   C333.994202,731.320068 334.436035,732.344177 335.000000,733.000000  z" />
<ns0:path fill="#FFFFFF" opacity="1.000000" stroke="none" d=" M390.467834,733.000000   C389.998444,555.018005 389.996887,377.036011 389.978821,198.118683   C389.953613,188.409561 389.944916,179.635803 389.965881,170.402863   C389.997040,113.629128 389.998505,57.314564 390.000000,1.000000   C399.661316,1.000000 409.322662,1.000000 418.960205,1.000000   C418.960205,245.000000 418.960205,489.000000 418.960205,733.000000   C409.592194,733.000000 400.263947,733.000000 390.467834,733.000000  z" />
<ns0:path fill="#FFFFFF" opacity="1.000000" stroke="none" d=" M18.966400,566.881287   C18.651711,610.644836 18.337023,654.408386 18.013247,699.108032   C18.002771,711.029358 18.001385,722.014709 18.000000,733.000000   C12.336597,733.000000 6.673196,733.000000 1.034114,733.000000   C1.034114,489.000000 1.034114,245.000000 1.034114,1.000000   C6.398517,1.000000 11.728806,1.000000 17.529547,1.468657   C18.000000,36.498505 17.981327,71.059715 18.007929,105.620880   C18.021099,122.730492 18.117630,139.840027 18.141586,157.389038   C18.217205,159.893372 18.327681,161.958298 18.307068,164.472855   C18.172878,172.618286 18.169775,180.314056 18.101871,188.466248   C18.080471,192.618042 18.123875,196.313446 18.101349,200.455017   C18.079947,203.604904 18.124475,206.308594 18.111946,209.404663   C18.403940,211.866776 18.752991,213.936493 19.023037,216.418152   C18.953978,218.503220 18.963923,220.176346 18.586357,222.069397   C18.132790,222.948898 18.008909,223.608475 18.008858,224.268051   C18.000114,337.341675 17.997416,450.415283 18.040018,563.488892   C18.040445,564.619812 18.644268,565.750488 18.966400,566.881287  z" />
<ns0:path fill="#000000" opacity="1.000000" stroke="none" d=" M389.531342,1.000000   C389.998505,57.314564 389.997040,113.629128 389.576965,170.244171   C389.061218,167.355103 388.964081,164.165573 388.895416,160.705780   C388.630493,160.236877 388.337097,160.038239 388.044952,159.433014   C387.986450,157.676285 387.926697,156.326172 387.895416,154.705780   C387.630493,154.236877 387.337097,154.038239 387.044922,153.420166   C386.986450,151.325851 386.926697,149.650955 386.895447,147.705780   C386.630554,147.236786 386.337128,147.038086 386.045105,146.479095   C385.986694,145.404587 385.926910,144.690353 385.895752,143.706207   C385.628601,143.244522 385.332825,143.052780 385.024780,142.460434   C383.963623,138.035126 382.914764,134.010422 381.927856,129.663300   C381.676239,128.839920 381.362610,128.338959 381.050537,127.523621   C380.991913,126.797554 380.931732,126.385880 380.897156,125.703667   C380.629913,125.232727 380.337097,125.032333 380.048004,124.518585   C379.991882,123.794914 379.932037,123.384590 379.897766,122.703537   C379.630524,122.231804 379.337708,122.030807 379.041931,121.608017   C379.038971,121.386215 378.873566,120.974564 378.898743,120.703705   C378.630737,120.232391 378.337555,120.031929 378.048035,119.518173   C377.991638,118.794632 377.931610,118.384407 377.897156,117.703644   C377.629913,117.232750 377.337067,117.032387 377.047913,116.518684   C376.991882,115.794998 376.932098,115.384651 376.898010,114.703491   C376.630829,114.231606 376.337891,114.030533 376.042053,113.607773   C376.039124,113.386078 375.873810,112.974602 375.898926,112.703674   C375.630920,112.231949 375.337830,112.031136 375.041687,111.608345   C375.038666,111.386368 374.873016,110.974442 374.898163,110.703743   C374.630157,110.232986 374.337036,110.032936 374.047455,109.519363   C373.991180,108.795265 373.931335,108.384689 373.897278,107.703476   C373.630249,107.232140 373.337402,107.031441 373.041626,106.608704   C373.038727,106.386673 372.873383,105.974503 372.898621,105.703644   C372.630829,105.231888 372.337799,105.030998 372.041809,104.608223   C372.038818,104.386345 371.873444,103.974533 371.898621,103.703659   C371.630768,103.231972 371.337738,103.031151 371.041748,102.608398   C371.038818,102.386475 370.873444,101.974533 370.898621,101.703659   C370.630768,101.231972 370.337738,101.031151 370.041748,100.608398   C370.038818,100.386475 369.873474,99.974525 369.898682,99.703644   C369.630829,99.231918 369.337799,99.031059 369.041809,98.608307   C369.038910,98.386398 368.873505,97.974533 368.898682,97.703720   C368.630585,97.232872 368.337280,97.032845 368.040588,96.610565   C368.037231,96.388321 367.874298,95.974701 367.900696,95.703110   C367.633453,95.229561 367.339783,95.027611 366.969391,94.553543   C366.552460,93.845673 366.212219,93.409920 365.898071,92.703400   C365.630676,92.232819 365.337219,92.032997 365.040466,91.610840   C365.037109,91.388496 364.874207,90.974686 364.900635,90.703102   C364.633392,90.229614 364.339722,90.027702 363.969391,89.553635   C363.552490,88.845711 363.212250,88.409935 362.898071,87.703430   C362.630676,87.232979 362.337219,87.033264 362.040436,86.611115   C362.037109,86.388687 361.874207,85.974686 361.900665,85.703094   C361.633423,85.229652 361.339722,85.027794 360.970154,84.554596   C360.553741,83.849800 360.213196,83.416344 359.860352,82.656326   C359.248962,81.495499 358.649902,80.661224 357.958374,79.535713   C357.206207,78.489479 356.546478,77.734482 355.913452,76.704834   C355.644623,76.223656 355.349091,76.017136 354.955933,75.522354   C354.201019,74.482544 353.543793,73.731003 352.913208,72.704865   C352.644379,72.223824 352.348907,72.017395 351.955811,71.522697   C351.200958,70.482780 350.543732,69.731133 349.913177,68.704872   C349.644318,68.223915 349.348846,68.017570 348.938171,67.504242   C346.843903,65.124664 344.864777,63.052071 342.912476,60.705040   C342.643799,60.224545 342.348358,60.018494 341.959320,59.528080   C340.977173,58.466606 340.088593,57.689495 339.058533,56.604187   C336.007019,53.511890 333.096985,50.727783 330.078491,47.692490   C329.656860,47.337410 329.343658,47.233521 328.721985,47.001549   C326.670990,45.230328 324.928528,43.587181 323.077850,41.692909   C322.656647,41.338032 322.343689,41.234272 321.794708,41.049164   C321.558716,40.967812 321.083984,40.813278 320.996704,40.547661   C320.336700,39.836239 319.763947,39.390438 319.080688,38.694504   C318.657166,38.338814 318.344147,38.233257 317.820221,38.051460   C317.609283,37.975224 317.161163,37.955051 317.060638,37.692772   C316.656952,37.221352 316.353821,37.012211 316.007050,36.578819   C315.788849,36.061680 315.531342,35.925064 315.080566,35.694550   C314.657166,35.338928 314.344208,35.233479 313.820129,35.051849   C313.609009,34.975666 313.160614,34.955166 313.060364,34.692810   C312.656952,34.221302 312.353790,34.012150 312.007019,33.578770   C311.788818,33.061691 311.531372,32.925072 311.080566,32.694542   C310.657196,32.338909 310.344208,32.233425 309.820129,32.051731   C309.608978,31.975523 309.160522,31.954918 309.061920,31.695126   C308.661285,31.233032 308.359253,31.030731 308.044464,30.893383   C308.031708,30.958338 308.159760,30.924780 308.058685,30.675409   C307.648590,30.326862 307.339539,30.227686 306.819153,30.052380   C306.607758,29.976248 306.158905,29.954851 306.062988,29.699396   C305.655121,29.338949 305.343140,29.233955 304.819519,29.052956   C304.607819,28.976948 304.158539,28.955626 304.060852,28.695501   C303.661072,28.233189 303.359039,28.031000 303.044250,27.893681   C303.031525,27.958549 303.159454,27.925146 303.058563,27.675676   C302.648651,27.327118 302.339630,27.228029 301.819000,27.052887   C301.607391,26.976837 301.158173,26.955076 301.062592,26.699516   C300.655090,26.338999 300.343201,26.234041 299.819397,26.053104   C299.607483,25.977127 299.157745,25.955769 299.060150,25.695702   C298.660553,25.233622 298.358551,25.031607 298.043945,24.894207   C298.031311,24.958822 298.158752,24.925703 298.058044,24.676331   C297.648590,24.327915 297.339783,24.228874 296.818970,24.053699   C296.606903,23.977566 296.156860,23.955387 296.061676,23.699898   C295.654846,23.339542 295.343170,23.234678 294.819305,23.053692   C294.607086,22.977571 294.156708,22.955393 294.061584,22.699883   C293.654816,22.339556 293.343201,22.234739 292.819275,22.053818   C292.607025,21.977713 292.156555,21.955456 292.061523,21.699934   C291.654846,21.339594 291.343231,21.234776 290.819275,21.053871   C290.606934,20.977785 290.156342,20.955479 290.061401,20.699944   C289.654846,20.339668 289.343262,20.234928 288.817871,20.054070   C288.604065,19.977951 288.150879,19.953268 288.055847,19.695278   C287.646637,19.332880 287.332489,19.228474 286.812012,19.047073   C286.605713,18.970078 286.165497,18.955950 286.066528,18.701729   C285.655792,18.340164 285.343994,18.232821 284.822266,18.047955   C284.612305,17.970430 284.164948,17.956022 284.066254,17.701733   C283.655762,17.340164 283.343994,17.232885 282.822144,17.048096   C282.612122,16.970583 282.164551,16.956009 282.066040,16.701691   C281.655762,16.340147 281.343994,16.232924 280.822144,16.048214   C280.612030,15.970727 280.164368,15.956038 280.065918,15.701694   C279.655731,15.340152 279.343994,15.232955 278.822083,15.048286   C278.611908,14.970814 278.164124,14.956098 278.065796,14.701733   C277.655762,14.340294 277.344055,14.233220 276.728699,14.050692   C276.008057,13.964993 275.591034,13.954747 275.075073,13.686902   C274.659668,13.323961 274.343201,13.218620 273.723022,13.043827   C273.004150,12.964502 272.588928,12.954631 272.074707,12.687252   C271.659332,12.324420 271.342926,12.219096 270.722809,12.044153   C270.003815,11.964692 269.588501,11.954851 269.074493,11.687439   C268.659424,11.324708 268.343109,11.219549 267.722839,11.044974   C267.003357,10.965537 266.587799,10.955517 266.073975,10.687727   C265.659363,10.324894 265.343048,10.219831 264.818848,10.042855   C264.610962,9.970942 264.171753,9.945769 264.073730,9.687884   C263.659332,9.325072 263.342987,9.220145 262.722351,9.046071   C262.002136,8.966702 261.586243,8.956479 261.072784,8.688435   C260.659241,8.325656 260.343201,8.220699 259.674530,8.046482   C258.603149,7.966708 257.884460,7.956194 257.067261,7.686023   C256.650482,7.320917 256.332184,7.215468 255.665161,7.038781   C254.604599,6.960830 253.892776,6.954118 253.078751,6.690564   C252.659515,6.326010 252.342468,6.218297 251.675049,6.039466   C250.609665,5.961553 249.894653,5.954758 249.077881,5.691130   C248.659317,5.326634 248.342529,5.218972 247.675064,5.040091   C246.608841,4.961459 245.893295,4.954047 245.017212,4.623532   C243.918503,4.247466 242.980301,4.194502 241.691528,4.057136   C240.619904,3.964761 239.898849,3.956789 239.076904,3.691654   C238.659348,3.327033 238.342636,3.219574 237.612823,3.041147   C235.524643,2.962716 233.849579,2.955253 232.017899,2.626605   C231.240845,1.870279 230.620422,1.435139 230.000000,0.999999   C283.020905,1.000000 336.041779,1.000000 389.531342,1.000000  z" />
<ns0:path fill="#000000" opacity="1.000000" stroke="none" d=" M18.176443,156.949600   C18.117630,139.840027 18.021099,122.730492 18.007929,105.620880   C17.981327,71.059715 18.000000,36.498505 18.000000,1.468657   C69.687561,1.000000 121.375122,1.000000 173.807465,1.282856   C174.307144,2.026919 174.062057,2.488127 173.595551,2.961579   C173.374146,2.973823 172.966782,3.149176 172.555557,3.090677   C170.364136,3.338587 168.583939,3.644997 166.583801,3.958156   C166.363861,3.964904 165.960953,4.141986 165.579437,4.086876   C164.067307,4.338523 162.936676,4.645281 161.585266,4.959440   C161.364487,4.966840 160.960098,5.144861 160.601471,5.087824   C159.430832,5.337859 158.618790,5.644930 157.585709,5.959506   C157.364655,5.967010 156.959747,6.145144 156.601196,6.088122   C155.431183,6.338200 154.619720,6.645298 153.586609,6.960299   C153.364944,6.968202 152.958908,7.146824 152.600525,7.089588   C151.431213,7.339054 150.620285,7.645756 149.587097,7.960673   C149.364868,7.968887 148.957687,8.147861 148.599518,8.090342   C147.431183,8.339520 146.621048,8.646218 145.504242,8.949421   C144.794052,8.995171 144.390533,9.044416 143.705551,9.068188   C143.218582,9.347754 143.013077,9.652794 142.501404,9.952530   C141.792358,9.996157 141.389481,10.045087 140.705261,10.068410   C140.218979,10.347892 140.014023,10.652980 139.503967,10.953089   C138.797501,10.997082 138.396103,11.046053 137.711639,11.067707   C137.218262,11.345384 137.007919,11.650377 136.494293,11.945824   C135.792130,11.986526 135.393280,12.036777 134.709473,12.064704   C134.209244,12.347686 133.993973,12.652989 133.575836,12.948776   C133.372986,12.939260 132.994568,13.086722 132.710220,13.064150   C132.215210,13.348078 132.004562,13.654580 131.491211,13.949373   C130.790283,13.987464 130.392075,14.037262 129.709106,14.064764   C129.210007,14.347978 128.995667,14.653485 128.577789,14.949903   C128.374222,14.940812 127.994179,15.087877 127.709473,15.065094   C127.210678,15.347868 126.996582,15.653425 126.578308,15.950171   C126.374123,15.941359 125.992790,16.088554 125.709106,16.065556   C125.216377,16.348911 125.007332,16.655262 124.494530,16.950884   C123.791161,16.989777 123.391548,17.039402 122.707870,17.066269   C122.210808,17.348742 121.997818,17.653975 121.579910,17.950771   C121.374992,17.942333 120.992035,18.089262 120.707962,18.066372   C120.211006,18.348774 119.998116,18.654064 119.580231,18.950792   C119.375237,18.942230 118.992081,19.089157 118.708069,19.066269   C118.211494,19.348728 117.998940,19.654076 117.580948,19.951088   C117.375511,19.942751 116.991379,20.089529 116.707489,20.066582   C116.211174,20.348890 115.998741,20.654146 115.582825,20.951180   C115.379341,20.942959 114.999550,21.090120 114.714035,21.065565   C114.212387,21.346462 113.996246,21.651915 113.577950,21.946785   C113.375786,21.936203 112.999245,22.085018 112.712570,22.063728   C112.208961,22.349342 111.992027,22.656248 111.574249,22.950296   C111.373405,22.937439 110.999176,23.085649 110.720779,23.058529   C110.229950,23.328053 110.017517,23.624697 109.872192,23.936726   C109.939308,23.952106 109.946739,23.814606 109.678772,23.920658   C109.198792,24.339279 108.986771,24.651846 108.573944,24.951031   C108.373146,24.937651 107.998863,25.085686 107.712395,25.064072   C107.209892,25.349510 106.993858,25.656563 106.576233,25.951221   C106.374626,25.938828 105.998680,26.086683 105.720322,26.059204   C105.229736,26.328499 105.017525,26.625271 104.872559,26.937336   C104.939819,26.952629 104.947289,26.814884 104.679260,26.920687   C104.199455,27.339073 103.987679,27.651657 103.574615,27.951132   C103.373322,27.938021 102.998001,28.085953 102.711815,28.064278   C102.210289,28.349596 101.994949,28.656588 101.577377,28.951397   C101.375137,28.939217 100.997826,29.086939 100.719574,29.059505   C100.229256,29.328802 100.017197,29.625534 99.872787,29.933540   C99.940453,29.944815 99.937637,29.807655 99.676605,29.915066   C99.219711,30.333471 99.023857,30.644466 98.867592,30.916723   C98.907188,30.877985 98.813850,30.818310 98.606766,30.868706   C98.399689,30.919102 98.006157,31.082859 97.726540,31.055950   C97.236053,31.327675 97.025192,31.626308 96.874748,31.943855   C96.935173,31.962767 96.952660,31.837349 96.680779,31.933708   C96.195724,32.342682 95.982559,32.655300 95.571129,32.951569   C95.372871,32.935223 95.003967,33.084190 94.724640,33.057400   C94.234726,33.329132 94.024147,33.627655 93.877228,33.938347   C93.940895,33.950520 93.941483,33.820881 93.679901,33.921669   C93.220268,34.329666 93.022209,34.636871 92.887802,34.954113   C92.951462,34.964146 92.953087,34.835274 92.681580,34.932552   C92.197479,35.342594 91.984894,35.655354 91.573181,35.952305   C91.374062,35.936493 91.003250,36.085152 90.723984,36.058079   C90.234398,36.329655 90.024078,36.628304 89.877625,36.939049   C89.941483,36.951149 89.942184,36.821167 89.680359,36.921791   C89.220505,37.329872 89.022476,37.637329 88.888321,37.954556   C88.952179,37.964321 88.953438,37.835117 88.681976,37.932343   C88.198395,38.342426 87.986275,38.655285 87.574356,38.952541   C87.374542,38.936939 87.002235,39.085438 86.723114,39.058418   C86.233826,39.329971 86.023666,39.628548 85.877594,39.939194   C85.941681,39.951267 85.942390,39.820839 85.680496,39.921593   C85.220436,40.329891 85.022263,40.637436 84.879311,40.932190   C84.934540,40.919399 84.881500,40.819191 84.627655,40.933586   C84.172173,41.354118 83.970543,41.660252 83.573044,41.949409   C83.377174,41.932434 83.013664,42.082340 82.733002,42.054955   C82.246231,42.329231 82.040123,42.630898 81.891670,42.951492   C81.949326,42.970428 81.947525,42.849072 81.683167,42.937126   C81.230362,43.333431 81.041924,43.641682 80.911377,43.956760   C80.969284,43.963593 80.947731,43.848991 80.683311,43.937073   C80.230377,44.333477 80.041862,44.641796 79.911377,44.956936   C79.969406,44.963757 79.947937,44.848900 79.683456,44.937019   C79.230423,45.333523 79.041862,45.641903 78.911392,45.957069   C78.969498,45.963852 78.948097,45.848839 78.683586,45.936996   C78.230453,46.333572 78.041832,46.641994 77.911385,46.957191   C77.969559,46.963970 77.948227,46.848793 77.683693,46.936981   C77.230522,47.333626 77.041878,47.642090 76.911461,47.957283   C76.969681,47.964020 76.948334,47.848766 76.683777,47.936974   C76.230583,48.333679 76.041946,48.642170 75.911530,48.957352   C75.969757,48.964043 75.948418,48.848785 75.683846,48.936981   C75.230621,49.333687 75.041969,49.642197 74.904480,49.968208   C74.955643,49.985718 74.964180,49.877911 74.686668,49.956413   C74.195740,50.347431 73.982315,50.659950 73.572433,50.953712   C73.375977,50.934952 73.010460,51.083912 72.730209,51.056541   C72.244507,51.330795 72.039070,51.632412 71.892059,51.952583   C71.950485,51.971134 71.948738,51.848541 71.684044,51.936844   C71.230568,52.333809 71.041779,52.642475 70.911522,52.957779   C70.970047,52.964420 70.948952,52.848522 70.684189,52.936825   C70.230591,53.333870 70.041763,53.642612 69.903320,53.954941   C69.953712,53.958523 69.915398,53.865032 69.666809,53.945084   C69.244522,54.314175 69.070824,54.603210 68.650085,54.964828   C68.234673,55.323208 68.066307,55.609005 67.604294,56.004944   C67.173714,56.711998 67.036781,57.308907 66.652504,57.972717   C66.237236,58.325554 66.069321,58.611492 65.653313,58.967724   C65.236862,59.324162 65.068497,59.610306 64.652336,59.967308   C64.236404,60.324261 64.068268,60.610359 63.652298,60.967293   C63.236389,61.324268 63.068306,61.610413 62.652351,61.967339   C62.236446,62.324318 62.068417,62.610523 61.651955,62.968075   C61.234272,63.326855 61.065022,63.614285 60.649208,63.970650   C60.235394,64.325363 60.068146,64.611145 59.652824,64.967499   C59.236797,65.324463 59.068840,65.610840 58.652779,65.967743   C58.236725,66.324707 58.068771,66.611137 57.606659,67.006577   C57.175186,67.712540 57.037876,68.309502 56.652714,68.972961   C56.237015,69.325752 56.069168,69.612045 55.606949,70.007240   C55.175961,70.713570 55.039337,71.310997 54.654469,71.974083   C54.238766,72.326500 54.071312,72.613266 53.654915,72.969284   C53.238060,73.325562 53.070156,73.612572 52.607628,74.007965   C52.176258,74.713829 52.039505,75.311325 51.654488,75.974472   C51.239056,76.327042 51.071884,76.613960 50.655525,76.969780   C50.238567,77.325897 50.070793,77.613113 49.608315,78.008255   C49.176453,78.713425 49.039299,79.310661 48.653332,79.974098   C48.236069,80.328499 48.067619,80.616699 47.651600,80.972565   C47.237183,81.326981 47.070335,81.613731 46.608322,82.008492   C46.175327,82.714706 46.037495,83.312920 45.605553,84.016281   C45.176140,84.717575 45.040844,85.313698 44.656372,85.974792   C44.239883,86.327408 44.072567,86.615044 43.609501,87.009636   C43.176048,87.715187 43.038349,88.313782 42.605965,89.016670   C42.175758,89.717583 42.040241,90.314217 41.655502,90.975235   C41.239113,91.327141 41.071934,91.614662 40.609024,92.009514   C40.176174,92.715797 40.039062,93.314735 39.606846,94.017929   C39.176540,94.718292 39.041336,95.314392 38.609772,96.015167   C38.177708,96.716805 38.042007,97.313789 37.607628,98.017662   C37.175663,98.728828 37.042374,99.333099 36.935017,99.973228   C36.960949,100.009087 36.947510,99.921913 36.636322,100.018890   C36.187740,100.737602 36.050346,101.359329 35.952873,101.984520   C35.992794,101.987976 35.947662,101.921753 35.636436,102.018784   C35.187813,102.737671 35.050423,103.359512 34.952904,103.984596   C34.992779,103.987831 34.947906,103.921593 34.636631,104.018646   C34.187920,104.737625 34.050484,105.359550 33.952934,105.984604   C33.992825,105.987724 33.947731,105.921623 33.636353,106.018684   C33.187721,106.737900 33.050465,107.360046 32.953026,107.984741   C32.992847,107.987274 32.947990,107.921272 32.636723,108.018684   C32.188061,108.738235 32.050663,109.360367 31.952991,109.984940   C31.992716,109.987366 31.948723,109.921036 31.636765,110.018936   C31.183702,110.740570 31.042601,111.364311 30.944534,111.997696   C30.987566,112.007347 31.006424,111.921181 30.776041,111.997070   C30.191792,112.237663 30.068487,112.507607 30.082172,113.274292   C29.709440,115.441780 29.430281,117.217758 29.076900,119.368149   C27.723972,123.826485 26.445269,127.910408 24.985079,132.343109   C23.584028,137.127731 22.364462,141.563568 21.080465,146.407959   C20.069506,150.194229 19.122974,153.571915 18.176443,156.949600  z" />
<ns0:path fill="#000000" opacity="1.000000" stroke="none" d=" M18.468658,733.000000   C18.001385,722.014709 18.002771,711.029358 18.031775,699.584106   C20.769062,706.971375 23.751537,714.734131 30.058874,720.481995   C35.544815,725.481384 41.549370,729.761169 49.148006,731.096802   C49.683838,731.191040 50.110344,731.907288 50.293846,732.667114   C39.645771,733.000000 29.291544,733.000000 18.468658,733.000000  z" />
<ns0:path fill="#000000" opacity="1.000000" stroke="none" d=" M104.885330,374.938293   C111.698242,380.892303 118.511147,386.846283 125.630997,392.954254   C125.546410,393.947510 125.379150,395.067810 124.730759,395.585236   C104.982605,411.345856 87.307983,429.081604 71.393044,448.774963   C58.994061,464.117676 49.035042,480.768158 40.175297,498.253357   C30.882765,516.592651 24.460154,535.834290 20.974112,556.080566   C20.399778,559.416199 19.651884,562.722046 18.975296,566.461426   C18.644268,565.750488 18.040445,564.619812 18.040018,563.488892   C17.997416,450.415283 18.000114,337.341675 18.008858,224.268051   C18.008909,223.608475 18.132790,222.948898 18.917850,222.304535   C20.803040,227.865768 21.969225,233.411774 23.081181,239.363708   C25.062479,246.842911 27.098005,253.916183 29.086266,261.359375   C29.654554,263.807922 30.270107,265.886536 30.621368,268.157898   C32.556339,273.257660 34.755604,278.164673 36.970222,283.039612   C36.985580,283.007599 36.914543,283.008759 36.932503,283.371216   C37.284645,284.512573 37.618828,285.291473 37.969894,286.038757   C37.986786,286.007141 37.915527,286.014801 37.932728,286.344910   C38.284332,287.140198 38.618732,287.605316 38.972519,288.037720   C38.991898,288.005005 38.922760,288.036713 38.936562,288.401764   C39.950054,290.533936 40.949749,292.301086 41.949448,294.068207   C41.949448,294.068207 41.992119,294.004395 41.971725,294.386444   C43.287258,296.870422 44.623184,298.972321 45.959106,301.074249   C45.959103,301.074249 45.990360,301.007385 45.971474,301.393250   C47.621994,304.544312 49.291401,307.309509 50.960808,310.074677   C50.960812,310.074677 50.988724,310.008270 50.971004,310.356750   C51.621986,311.494720 52.290688,312.284271 52.959381,313.073792   C52.959381,313.073792 52.988907,313.007874 52.971130,313.356323   C53.621960,314.494446 54.290562,315.284088 54.959167,316.073730   C54.959167,316.073730 54.988964,316.007812 54.971161,316.356384   C55.621975,317.494568 56.290592,318.284180 56.959206,319.073761   C56.959206,319.073761 56.985981,319.008179 56.969948,319.339661   C57.286743,320.137909 57.619576,320.604614 57.952412,321.071350   C57.952412,321.071350 57.991043,321.006836 58.004318,321.295898   C58.334473,321.749939 58.651356,321.914917 58.968239,322.079895   C58.968239,322.079895 58.988937,322.011017 59.003578,322.298462   C59.335930,322.750458 59.653641,322.915039 59.971352,323.079651   C59.971348,323.079651 59.988285,323.010742 59.971012,323.357788   C60.622257,324.494507 61.290779,325.284119 61.959301,326.073730   C61.959305,326.073730 61.988880,326.007843 61.971550,326.356262   C62.622578,327.494324 63.290936,328.284027 63.959290,329.073730   C63.959286,329.073730 63.985996,329.008087 63.970200,329.339539   C64.287079,330.137787 64.619759,330.604553 64.952423,331.071350   C64.952423,331.071350 64.991035,331.006805 65.004631,331.296356   C65.335968,331.750458 65.653717,331.915039 65.971458,332.079590   C65.971458,332.079590 65.986580,332.009827 65.970482,332.340393   C66.287064,333.137787 66.619751,333.604584 66.952438,334.071350   C66.952446,334.071350 66.991013,334.006805 67.004646,334.296387   C67.336067,334.750519 67.653854,334.915039 67.971634,335.079590   C67.971634,335.079590 67.986618,335.009766 67.970963,335.340210   C68.287689,336.137573 68.620064,336.604462 68.952438,337.071350   C68.952438,337.071350 68.991020,337.006836 69.004303,337.295898   C69.334465,337.749969 69.651344,337.914948 69.968231,338.079895   C69.968239,338.079895 69.988937,338.011047 70.003265,338.298004   C70.334473,338.749939 70.651360,338.914917 70.968246,339.079895   C70.968239,339.079895 70.988937,339.011017 71.003616,339.298462   C71.336075,339.750488 71.653862,339.915039 71.971634,340.079590   C71.971634,340.079590 71.986618,340.009766 71.971008,340.340149   C72.287720,341.137482 72.620041,341.604431 72.952370,342.071350   C72.952377,342.071350 72.991035,342.006836 73.004471,342.295776   C73.334686,342.749786 73.651459,342.914856 73.968231,343.079926   C73.968231,343.079926 73.988914,343.011047 74.003433,343.297882   C74.334702,343.749786 74.651459,343.914856 74.968208,344.079956   C74.968208,344.079956 74.988914,344.011078 75.003448,344.297913   C75.334717,344.749786 75.651451,344.914856 75.968185,345.079956   C75.968178,345.079956 75.988899,345.011108 76.003456,345.297913   C76.334732,345.749786 76.651443,345.914886 76.968163,346.079956   C76.968163,346.079956 76.988884,346.011108 77.003456,346.297913   C77.334747,346.749786 77.651466,346.914886 77.968178,347.079956   C77.968170,347.079987 77.988899,347.011108 78.003807,347.298401   C78.336365,347.750366 78.654007,347.914978 78.971649,348.079590   C78.971657,348.079590 78.986580,348.009735 78.971542,348.339905   C79.288498,349.137177 79.620499,349.604248 79.952499,350.071350   C79.952499,350.071350 79.991005,350.006836 80.004738,350.295563   C80.335114,350.749512 80.651764,350.914734 80.968414,351.079926   C80.968414,351.079926 80.988922,351.011047 81.003700,351.297668   C81.335129,351.749512 81.651779,351.914734 81.968430,352.079956   C81.968430,352.079956 81.988914,352.011108 82.003693,352.297699   C82.335129,352.749512 82.651787,352.914734 82.968437,353.079956   C82.968437,353.079956 82.988907,353.011108 83.003693,353.297668   C83.335144,353.749481 83.651802,353.914703 83.968460,354.079956   C83.968452,354.079956 83.988899,354.011078 84.003693,354.297668   C84.335144,354.749481 84.651802,354.914703 84.968460,355.079956   C84.968452,355.079956 84.988914,355.011078 85.004036,355.298187   C85.336708,355.750061 85.654259,355.914825 85.971817,356.079590   C85.971825,356.079590 85.986603,356.009735 85.971558,356.339844   C86.288490,357.137054 86.620476,357.604187 86.952461,358.071289   C86.952461,358.071289 86.991005,358.006775 87.004745,358.295532   C87.335098,358.749512 87.651726,358.914703 87.968353,359.079895   C87.968353,359.079895 87.988937,359.011047 88.003708,359.297668   C88.335098,359.749512 88.651718,359.914703 88.968338,360.079895   C88.968346,360.079895 88.988945,360.011047 89.003723,360.297668   C89.335129,360.749512 89.651756,360.914703 89.968384,361.079895   C89.968376,361.079895 89.988953,361.011047 90.003731,361.297668   C90.335159,361.749512 90.651802,361.914703 90.968445,362.079895   C90.968437,362.079926 90.988937,362.011047 91.003723,362.297668   C91.335167,362.749512 91.651833,362.914734 91.968506,363.079926   C91.968506,363.079926 91.988914,363.011078 92.003708,363.297668   C92.335190,363.749481 92.651886,363.914703 92.968575,364.079926   C92.968575,364.079926 92.988907,364.011047 93.003716,364.297668   C93.335213,364.749481 93.651909,364.914703 93.968613,365.079956   C93.968613,365.079926 93.988899,365.011078 94.003738,365.297607   C94.335266,365.749420 94.651955,365.914673 94.968643,366.079926   C94.968643,366.079926 94.988907,366.011078 95.003746,366.297607   C95.335312,366.749390 95.652031,366.914673 95.968758,367.079956   C95.968758,367.079956 95.988914,367.011047 96.004227,367.298218   C96.337433,367.750549 96.655327,367.915741 96.973213,368.080963   C96.973213,368.080963 96.988304,368.011658 97.003189,368.297058   C97.336555,368.748627 97.655037,368.914856 97.973518,369.081055   C97.973518,369.081055 97.988350,369.011658 98.003250,369.296997   C98.336624,369.748566 98.655090,369.914825 98.973564,370.081055   C98.973564,370.081055 98.988365,370.011658 99.003296,370.296967   C99.336678,370.748535 99.655136,370.914795 99.973587,371.081024   C99.973595,371.081024 99.988350,371.011658 100.002823,371.296234   C100.334496,371.747192 100.651688,371.913544 100.968887,372.079926   C100.968887,372.079926 100.988922,372.011078 101.003929,372.297455   C101.335526,372.749176 101.652115,372.914520 101.968704,373.079865   C101.968697,373.079865 101.988976,373.011017 102.003952,373.297424   C102.335472,373.749146 102.652008,373.914490 102.968552,374.079834   C102.968552,374.079834 102.996284,374.005615 103.044449,374.338013   C103.690193,374.759735 104.287766,374.849030 104.885330,374.938293  z" />
<ns0:path fill="#000000" opacity="1.000000" stroke="none" d=" M142.205124,108.046516   C142.205124,108.046516 142.621643,108.053596 143.093506,108.006317   C143.776001,107.664124 143.986633,107.369217 144.197250,107.074310   C144.197250,107.074303 144.054245,107.052589 144.316589,107.015244   C144.784958,106.670631 144.991013,106.363358 145.197052,106.056091   C145.197052,106.056091 145.044907,106.041466 145.312866,106.008667   C145.791260,105.665756 146.001678,105.355659 146.212097,105.045563   C146.212082,105.045555 146.619690,105.055099 147.092148,105.006729   C147.774765,104.656219 147.984909,104.354065 148.195068,104.051918   C148.195068,104.051918 148.617477,104.048531 149.091583,104.004204   C149.776245,103.666290 149.986816,103.372711 150.197372,103.079124   C150.197372,103.079124 150.054718,103.055229 150.318481,103.016075   C150.790573,102.667374 150.998901,102.357819 151.207214,102.048271   C151.207214,102.048271 151.622162,102.052612 152.098404,102.003738   C152.785370,101.652931 152.996094,101.350998 153.206818,101.049057   C153.206818,101.049057 153.621857,101.052048 154.092773,101.007324   C154.775345,100.668762 154.987000,100.374924 155.198654,100.081093   C155.198654,100.081093 155.114441,100.029747 155.358063,99.993668   C155.798035,99.656921 155.994400,99.356255 156.190765,99.055595   C156.190765,99.055595 156.615524,99.047134 157.095551,99.001419   C157.783585,98.654633 157.991577,98.353561 158.199585,98.052490   C158.199585,98.052498 158.619705,98.047882 159.097519,98.001892   C159.783707,97.654655 159.992081,97.353416 160.200439,97.052170   C160.607162,97.048805 161.013870,97.045448 161.998199,96.999161   C162.784988,96.654999 162.994171,96.353760 163.203354,96.052521   C163.203354,96.052521 163.620438,96.049065 164.097641,96.003311   C164.784927,95.655823 164.995010,95.354088 165.205093,95.052353   C165.610153,95.049644 166.015213,95.046928 166.995300,95.002823   C167.775650,94.660339 167.981003,94.359253 168.186356,94.058167   C168.186356,94.058167 168.612854,94.039307 169.093613,93.998734   C169.780655,93.657166 169.986938,93.356171 170.193237,93.055176   C170.601273,93.048477 171.009293,93.041779 171.995712,92.997421   C172.781296,92.658287 172.988495,92.356804 173.195679,92.055313   C173.195679,92.055313 173.631699,92.032837 174.192078,92.009430   C175.566986,91.676582 176.381485,91.367126 177.195999,91.057678   C177.195999,91.057686 177.631302,91.034340 178.191696,91.010963   C179.567703,90.677750 180.383316,90.367912 181.198929,90.058083   C181.198929,90.058083 181.632019,90.036026 182.230164,90.012878   C184.280991,89.679817 185.733673,89.369904 187.186356,89.059998   C187.186356,89.059990 187.624374,89.027969 188.258545,89.009308   C191.324921,88.680374 193.757141,88.370117 196.189362,88.059860   C196.189362,88.059853 196.625122,88.028946 197.287018,88.010605   C202.295517,87.950645 206.642136,87.909027 210.988739,87.867409   C210.988739,87.867409 211.384262,88.025871 211.806808,88.418152   C214.810806,88.830383 217.392242,88.850334 219.973694,88.870285   C219.973694,88.870285 220.374802,89.027855 220.691193,89.311493   C221.335358,89.701134 221.663147,89.807152 221.990921,89.913162   C223.014053,89.956978 224.037201,90.000793 225.543823,90.301758   C226.343246,90.668098 226.659210,90.777275 226.975159,90.886459   C227.686996,90.939674 228.398849,90.992882 229.568863,91.302444   C230.343216,91.668114 230.659393,91.777428 230.975571,91.886742   C231.146164,91.931519 231.316742,91.976288 231.744019,91.957352   C232.000732,91.893639 232.408783,92.024773 232.718872,92.292854   C233.343948,92.667114 233.658951,92.773293 233.973953,92.879471   C234.385574,92.932579 234.797211,92.985687 235.618622,93.300087   C236.343857,93.667892 236.659302,93.774391 236.974762,93.880890   C237.385651,93.934105 237.796524,93.987328 238.617798,94.300972   C239.343735,94.667885 239.659286,94.774376 239.974838,94.880859   C240.385391,94.934280 240.795944,94.987686 241.617279,95.301239   C242.343826,95.668457 242.659576,95.775536 242.975327,95.882614   C242.975327,95.882614 243.387756,96.033905 243.707718,96.297630   C244.343567,96.668465 244.659470,96.775574 244.975357,96.882683   C244.975357,96.882683 245.387650,97.033981 245.707672,97.297684   C246.343704,97.668556 246.659729,97.775734 246.975739,97.882919   C246.975739,97.882919 247.389709,98.034554 247.711060,98.301079   C248.349640,98.671104 248.666885,98.774597 248.984116,98.878098   C248.984116,98.878098 249.396576,99.027374 249.712799,99.295563   C250.344421,99.668610 250.659805,99.773460 250.975189,99.878311   C250.975189,99.878311 251.392090,100.027710 251.710587,100.295792   C252.344589,100.668846 252.660110,100.773819 252.975616,100.878784   C252.975616,100.878784 253.391098,101.028366 253.709900,101.297920   C254.329498,101.771133 254.630280,101.974792 254.931061,102.178444   C254.931061,102.178444 254.942459,102.067116 254.990967,102.326035   C255.351730,102.683434 255.664001,102.781906 255.976273,102.880386   C255.976273,102.880386 256.391113,103.030083 256.709991,103.297005   C257.344513,103.669083 257.660156,103.774239 257.975800,103.879395   C257.975800,103.879395 258.390167,104.029198 258.710999,104.301331   C259.334686,104.784157 259.637543,104.994850 259.940399,105.205544   C259.921661,105.544197 260.058319,105.799782 260.687561,106.268402   C261.341919,106.670227 261.659088,106.775948 261.976257,106.881668   C261.976257,106.881668 262.389069,107.031319 262.710358,107.302414   C263.334564,107.784317 263.637451,107.995110 263.940369,108.205902   C263.922302,108.546173 264.060272,108.802437 264.692627,109.272507   C265.349304,109.673027 265.667633,109.775749 265.985992,109.878464   C268.756439,112.561882 271.526886,115.245300 274.605042,118.073219   C276.555481,119.947800 278.198242,121.677872 279.946838,123.988899   C280.348175,124.778122 280.643646,124.986404 280.939148,125.194687   C281.261444,125.628586 281.583740,126.062492 281.979156,127.033218   C282.347809,127.778526 282.643311,127.987022 282.938843,128.195526   C282.924683,128.531601 283.060944,128.787613 283.566711,129.022003   C284.154266,129.542389 284.522797,130.004318 284.978943,131.017410   C285.360077,131.772186 285.653595,131.975815 285.947144,132.179428   C286.269470,132.619110 286.591797,133.058777 286.990723,134.033417   C287.360626,134.771835 287.653992,134.975311 287.947357,135.178772   C287.947357,135.178772 287.953094,135.616989 288.009949,136.092758   C288.360291,136.772156 288.653748,136.975769 288.947235,137.179382   C289.269531,137.619064 289.591797,138.058746 289.990662,139.033401   C290.360596,139.771851 290.653992,139.975327 290.947357,140.178802   C290.947357,140.178802 290.953400,140.617142 291.010437,141.092728   C291.360809,141.771698 291.654144,141.975082 291.947479,142.178452   C291.947479,142.178452 291.953735,142.617050 292.010925,143.092590   C292.361328,143.771225 292.654572,143.974319 292.947815,144.177414   C292.949738,144.592651 292.951660,145.007904 293.010742,145.995667   C293.361084,146.771683 293.654266,146.975159 293.947418,147.178635   C293.947418,147.178635 293.953522,147.617050 294.010559,148.092667   C294.360870,148.771759 294.654114,148.975250 294.947388,149.178726   C294.949249,149.593658 294.951141,150.008575 295.010284,150.995911   C295.360748,151.771973 295.653992,151.975616 295.947205,152.179276   C295.947205,152.179276 295.953339,152.617020 296.007202,153.087860   C296.350372,153.756409 296.639618,153.954117 296.928894,154.151810   C296.928894,154.151810 296.909485,154.088547 296.889343,154.114792   C296.899384,154.563400 296.929565,154.985748 297.013580,155.986908   C297.361023,156.767166 297.654633,156.968613 297.948303,157.170059   C297.952484,157.887848 297.956665,158.605652 298.014252,159.944580   C298.361237,160.767136 298.654785,160.968552 298.948364,161.169968   C298.952545,161.887787 298.956696,162.605606 299.014252,163.944550   C299.361237,164.767029 299.654816,164.968384 299.948364,165.169739   C299.952606,166.846313 299.956879,168.522903 300.014374,170.882599   C300.361206,171.767136 300.654755,171.968567 300.948364,172.169998   C300.952209,175.487778 300.956085,178.805542 301.013245,182.844666   C301.360260,183.767944 301.653931,183.969864 301.947632,184.171783   C301.946899,185.788681 301.946167,187.405563 301.694336,189.530792   C301.336121,190.352036 301.229004,190.664963 301.121887,190.977875   C301.059601,195.325470 300.997314,199.673080 300.881958,204.478912   C298.538055,214.403809 296.947601,224.109695 293.812469,233.287918   C287.038879,253.118042 276.919189,271.243164 263.189514,287.179688   C256.752411,294.651428 250.634277,302.617889 243.163452,308.930267   C230.207108,319.877594 216.311493,329.713196 202.446411,340.062195   C195.127289,335.283569 187.703323,331.001862 181.321152,325.509583   C170.674164,316.347076 160.416336,306.685822 150.509598,296.722534   C140.271164,286.425659 132.022705,274.522705 125.040123,261.770630   C124.018097,259.904114 122.879707,258.101349 121.442101,255.778046   C120.752151,254.841476 120.415253,254.395935 120.078354,253.950409   C120.078354,253.950409 120.002930,253.999069 120.023438,253.597382   C117.311325,246.793488 114.578690,240.391281 111.904449,233.602982   C110.586876,228.805084 109.210899,224.393265 107.834915,219.981461   C107.076401,214.053711 106.317886,208.125961 105.238068,201.523819   C104.972572,191.913315 105.028381,182.977203 105.084190,174.041092   C105.084190,174.041092 105.019829,174.004623 105.404686,173.863663   C105.884521,171.476654 105.979500,169.230621 106.074478,166.984573   C106.074486,166.984573 106.007996,167.011154 106.388214,166.884186   C106.872505,165.172318 106.976570,163.587418 107.080635,162.002533   C107.080635,162.002533 107.011002,162.017792 107.364685,161.920593   C107.837791,160.880905 107.957207,159.938416 108.076614,158.995926   C108.076614,158.995926 108.009918,159.019257 108.381760,158.901672   C108.864090,157.524414 108.974594,156.264740 109.085091,155.005051   C109.085091,155.005051 109.014229,155.021469 109.368286,154.923401   C109.841492,153.882980 109.960632,152.940628 110.079773,151.998291   C110.079773,151.998291 110.011833,152.022064 110.373383,151.918701   C111.187393,150.214752 111.639854,148.614182 112.092316,147.013596   C112.092316,147.013596 112.017967,147.028625 112.304588,146.993759   C112.710144,146.629150 112.829071,146.299393 112.947998,145.969650   C112.947998,145.969650 113.095978,145.656525 113.342194,145.315338   C113.992653,144.006470 114.396912,143.038773 114.899017,141.833252   C115.058708,141.435516 115.120537,141.275604 115.182373,141.115692   C115.182373,141.115692 115.128990,141.049789 115.365250,140.995117   C115.712479,140.615082 115.823441,140.289749 116.012177,139.800171   C116.089935,139.635941 116.030663,139.277390 116.287048,139.133453   C116.674446,138.650497 116.805466,138.311462 117.013779,137.807404   C117.091072,137.642395 117.029152,137.283249 117.283440,137.139557   C117.721901,136.669357 117.906075,136.342865 118.051300,136.027527   C118.012344,136.038696 118.042999,136.113708 118.310768,136.035034   C118.698555,135.633362 118.818573,135.310349 119.016190,134.815872   C119.093788,134.644409 119.040215,134.271835 119.327438,134.103790   C119.793770,133.316299 119.972878,132.696869 120.098106,132.062973   C120.044228,132.048523 120.035561,132.159760 120.301598,132.064804   C120.757278,131.656952 120.946922,131.344055 121.078766,131.038086   C121.020966,131.045013 121.048126,131.158218 121.313309,131.059906   C121.696846,130.633957 121.815201,130.306320 122.010437,129.809875   C122.087318,129.641068 122.034027,129.273911 122.289299,129.134155   C122.728752,128.669037 122.912933,128.343674 123.049194,128.032104   C123.001266,128.045883 123.035400,128.139587 123.303055,128.053833   C123.758728,127.656509 123.946762,127.344948 124.085373,127.051331   C124.035957,127.069283 124.088303,127.160484 124.383026,127.020493   C125.176994,125.953705 125.676247,125.026901 126.120850,124.076126   C126.066208,124.052139 126.041214,124.168831 126.306641,124.070473   C126.769691,123.661018 126.967316,123.349915 127.097824,123.036896   C127.030716,123.034973 127.041481,123.168816 127.306877,123.070526   C127.769806,122.661179 127.967339,122.350128 128.097900,122.037125   C128.030930,122.035179 128.041702,122.168747 128.307083,122.070534   C128.769928,121.661301 128.967407,121.350288 129.098358,121.043724   C129.031860,121.048180 129.057816,121.178940 129.319672,121.072617   C129.698715,120.638947 129.815872,120.311607 130.009064,119.812515   C130.085083,119.640762 130.039093,119.267944 130.295502,119.130722   C130.747787,118.671524 130.943665,118.349541 131.077118,118.036087   C131.014694,118.044624 131.043381,118.167328 131.308517,118.070084   C131.770218,117.662270 131.966782,117.351692 132.113281,117.042809   C132.063232,117.044502 132.090714,117.140854 132.340149,117.052216   C132.775604,116.673210 132.961639,116.382851 133.147675,116.092484   C133.147675,116.092484 133.038086,116.076187 133.306458,116.025543   C133.778748,115.665802 133.982681,115.356705 134.186615,115.047607   C134.186615,115.047607 134.039413,115.033119 134.307953,115.003128   C134.787308,114.663315 134.998108,114.353493 135.208893,114.043671   C135.208893,114.043671 135.622650,114.056099 136.093506,114.006332   C136.773666,113.660210 136.983002,113.363838 137.192322,113.067474   C137.192322,113.067474 137.051376,113.044922 137.313751,113.010231   C137.779846,112.666954 137.983536,112.358376 138.187225,112.049789   C138.187225,112.049789 138.040634,112.041008 138.308441,112.008324   C138.779831,111.667038 138.983444,111.358437 139.187042,111.049835   C139.187042,111.049835 139.040680,111.041054 139.308517,111.008408   C139.779861,110.667152 139.983368,110.358543 140.186874,110.049934   C140.186874,110.049934 140.084595,110.027313 140.336212,109.995880   C140.770401,109.671822 140.952988,109.379204 141.135574,109.086586   C141.135574,109.086586 141.025757,109.085297 141.301834,109.030281   C141.786972,108.665680 141.996048,108.356094 142.205124,108.046516  z" />
</svg>